# Worldr authored inspection sample; dimensions in millimetres.
o Base plate
v -50 0 -30
v 50 0 -30
v 50 8 -30
v -50 8 -30
v -50 0 30
v 50 0 30
v 50 8 30
v -50 8 30
f 1 3 2
f 1 4 3
f 5 6 7
f 5 7 8
f 1 2 6
f 1 6 5
f 4 8 7
f 4 7 3
f 1 5 8
f 1 8 4
f 2 3 7
f 2 7 6
o Upright
v -50 8 -30
v -40 8 -30
v -40 63 -30
v -50 63 -30
v -50 8 30
v -40 8 30
v -40 63 30
v -50 63 30
f 9 11 10
f 9 12 11
f 13 14 15
f 13 15 16
f 9 10 14
f 9 14 13
f 12 16 15
f 12 15 11
f 9 13 16
f 9 16 12
f 10 11 15
f 10 15 14
o Support rib
v -40 8 -8
v -15 8 -8
v -15 32 -8
v -40 32 -8
v -40 8 8
v -15 8 8
v -15 32 8
v -40 32 8
f 17 19 18
f 17 20 19
f 21 22 23
f 21 23 24
f 17 18 22
f 17 22 21
f 20 24 23
f 20 23 19
f 17 21 24
f 17 24 20
f 18 19 23
f 18 23 22
o Mounting bolt
v 33.000000 8.000000 -18.000000
v 32.829629 8.000000 -16.705905
v 32.330127 8.000000 -15.500000
v 31.535534 8.000000 -14.464466
v 30.500000 8.000000 -13.669873
v 29.294095 8.000000 -13.170371
v 28.000000 8.000000 -13.000000
v 26.705905 8.000000 -13.170371
v 25.500000 8.000000 -13.669873
v 24.464466 8.000000 -14.464466
v 23.669873 8.000000 -15.500000
v 23.170371 8.000000 -16.705905
v 23.000000 8.000000 -18.000000
v 23.170371 8.000000 -19.294095
v 23.669873 8.000000 -20.500000
v 24.464466 8.000000 -21.535534
v 25.500000 8.000000 -22.330127
v 26.705905 8.000000 -22.829629
v 28.000000 8.000000 -23.000000
v 29.294095 8.000000 -22.829629
v 30.500000 8.000000 -22.330127
v 31.535534 8.000000 -21.535534
v 32.330127 8.000000 -20.500000
v 32.829629 8.000000 -19.294095
v 33.000000 15.000000 -18.000000
v 32.829629 15.000000 -16.705905
v 32.330127 15.000000 -15.500000
v 31.535534 15.000000 -14.464466
v 30.500000 15.000000 -13.669873
v 29.294095 15.000000 -13.170371
v 28.000000 15.000000 -13.000000
v 26.705905 15.000000 -13.170371
v 25.500000 15.000000 -13.669873
v 24.464466 15.000000 -14.464466
v 23.669873 15.000000 -15.500000
v 23.170371 15.000000 -16.705905
v 23.000000 15.000000 -18.000000
v 23.170371 15.000000 -19.294095
v 23.669873 15.000000 -20.500000
v 24.464466 15.000000 -21.535534
v 25.500000 15.000000 -22.330127
v 26.705905 15.000000 -22.829629
v 28.000000 15.000000 -23.000000
v 29.294095 15.000000 -22.829629
v 30.500000 15.000000 -22.330127
v 31.535534 15.000000 -21.535534
v 32.330127 15.000000 -20.500000
v 32.829629 15.000000 -19.294095
f 25 26 50
f 25 50 49
f 26 27 51
f 26 51 50
f 27 28 52
f 27 52 51
f 28 29 53
f 28 53 52
f 29 30 54
f 29 54 53
f 30 31 55
f 30 55 54
f 31 32 56
f 31 56 55
f 32 33 57
f 32 57 56
f 33 34 58
f 33 58 57
f 34 35 59
f 34 59 58
f 35 36 60
f 35 60 59
f 36 37 61
f 36 61 60
f 37 38 62
f 37 62 61
f 38 39 63
f 38 63 62
f 39 40 64
f 39 64 63
f 40 41 65
f 40 65 64
f 41 42 66
f 41 66 65
f 42 43 67
f 42 67 66
f 43 44 68
f 43 68 67
f 44 45 69
f 44 69 68
f 45 46 70
f 45 70 69
f 46 47 71
f 46 71 70
f 47 48 72
f 47 72 71
f 48 25 49
f 48 49 72
f 25 27 26
f 49 50 51
f 25 28 27
f 49 51 52
f 25 29 28
f 49 52 53
f 25 30 29
f 49 53 54
f 25 31 30
f 49 54 55
f 25 32 31
f 49 55 56
f 25 33 32
f 49 56 57
f 25 34 33
f 49 57 58
f 25 35 34
f 49 58 59
f 25 36 35
f 49 59 60
f 25 37 36
f 49 60 61
f 25 38 37
f 49 61 62
f 25 39 38
f 49 62 63
f 25 40 39
f 49 63 64
f 25 41 40
f 49 64 65
f 25 42 41
f 49 65 66
f 25 43 42
f 49 66 67
f 25 44 43
f 49 67 68
f 25 45 44
f 49 68 69
f 25 46 45
f 49 69 70
f 25 47 46
f 49 70 71
f 25 48 47
f 49 71 72
o Mounting bolt
v 33.000000 8.000000 18.000000
v 32.829629 8.000000 19.294095
v 32.330127 8.000000 20.500000
v 31.535534 8.000000 21.535534
v 30.500000 8.000000 22.330127
v 29.294095 8.000000 22.829629
v 28.000000 8.000000 23.000000
v 26.705905 8.000000 22.829629
v 25.500000 8.000000 22.330127
v 24.464466 8.000000 21.535534
v 23.669873 8.000000 20.500000
v 23.170371 8.000000 19.294095
v 23.000000 8.000000 18.000000
v 23.170371 8.000000 16.705905
v 23.669873 8.000000 15.500000
v 24.464466 8.000000 14.464466
v 25.500000 8.000000 13.669873
v 26.705905 8.000000 13.170371
v 28.000000 8.000000 13.000000
v 29.294095 8.000000 13.170371
v 30.500000 8.000000 13.669873
v 31.535534 8.000000 14.464466
v 32.330127 8.000000 15.500000
v 32.829629 8.000000 16.705905
v 33.000000 15.000000 18.000000
v 32.829629 15.000000 19.294095
v 32.330127 15.000000 20.500000
v 31.535534 15.000000 21.535534
v 30.500000 15.000000 22.330127
v 29.294095 15.000000 22.829629
v 28.000000 15.000000 23.000000
v 26.705905 15.000000 22.829629
v 25.500000 15.000000 22.330127
v 24.464466 15.000000 21.535534
v 23.669873 15.000000 20.500000
v 23.170371 15.000000 19.294095
v 23.000000 15.000000 18.000000
v 23.170371 15.000000 16.705905
v 23.669873 15.000000 15.500000
v 24.464466 15.000000 14.464466
v 25.500000 15.000000 13.669873
v 26.705905 15.000000 13.170371
v 28.000000 15.000000 13.000000
v 29.294095 15.000000 13.170371
v 30.500000 15.000000 13.669873
v 31.535534 15.000000 14.464466
v 32.330127 15.000000 15.500000
v 32.829629 15.000000 16.705905
f 73 74 98
f 73 98 97
f 74 75 99
f 74 99 98
f 75 76 100
f 75 100 99
f 76 77 101
f 76 101 100
f 77 78 102
f 77 102 101
f 78 79 103
f 78 103 102
f 79 80 104
f 79 104 103
f 80 81 105
f 80 105 104
f 81 82 106
f 81 106 105
f 82 83 107
f 82 107 106
f 83 84 108
f 83 108 107
f 84 85 109
f 84 109 108
f 85 86 110
f 85 110 109
f 86 87 111
f 86 111 110
f 87 88 112
f 87 112 111
f 88 89 113
f 88 113 112
f 89 90 114
f 89 114 113
f 90 91 115
f 90 115 114
f 91 92 116
f 91 116 115
f 92 93 117
f 92 117 116
f 93 94 118
f 93 118 117
f 94 95 119
f 94 119 118
f 95 96 120
f 95 120 119
f 96 73 97
f 96 97 120
f 73 75 74
f 97 98 99
f 73 76 75
f 97 99 100
f 73 77 76
f 97 100 101
f 73 78 77
f 97 101 102
f 73 79 78
f 97 102 103
f 73 80 79
f 97 103 104
f 73 81 80
f 97 104 105
f 73 82 81
f 97 105 106
f 73 83 82
f 97 106 107
f 73 84 83
f 97 107 108
f 73 85 84
f 97 108 109
f 73 86 85
f 97 109 110
f 73 87 86
f 97 110 111
f 73 88 87
f 97 111 112
f 73 89 88
f 97 112 113
f 73 90 89
f 97 113 114
f 73 91 90
f 97 114 115
f 73 92 91
f 97 115 116
f 73 93 92
f 97 116 117
f 73 94 93
f 97 117 118
f 73 95 94
f 97 118 119
f 73 96 95
f 97 119 120
o Mounting bolt
v -21.000000 8.000000 -18.000000
v -21.170371 8.000000 -16.705905
v -21.669873 8.000000 -15.500000
v -22.464466 8.000000 -14.464466
v -23.500000 8.000000 -13.669873
v -24.705905 8.000000 -13.170371
v -26.000000 8.000000 -13.000000
v -27.294095 8.000000 -13.170371
v -28.500000 8.000000 -13.669873
v -29.535534 8.000000 -14.464466
v -30.330127 8.000000 -15.500000
v -30.829629 8.000000 -16.705905
v -31.000000 8.000000 -18.000000
v -30.829629 8.000000 -19.294095
v -30.330127 8.000000 -20.500000
v -29.535534 8.000000 -21.535534
v -28.500000 8.000000 -22.330127
v -27.294095 8.000000 -22.829629
v -26.000000 8.000000 -23.000000
v -24.705905 8.000000 -22.829629
v -23.500000 8.000000 -22.330127
v -22.464466 8.000000 -21.535534
v -21.669873 8.000000 -20.500000
v -21.170371 8.000000 -19.294095
v -21.000000 15.000000 -18.000000
v -21.170371 15.000000 -16.705905
v -21.669873 15.000000 -15.500000
v -22.464466 15.000000 -14.464466
v -23.500000 15.000000 -13.669873
v -24.705905 15.000000 -13.170371
v -26.000000 15.000000 -13.000000
v -27.294095 15.000000 -13.170371
v -28.500000 15.000000 -13.669873
v -29.535534 15.000000 -14.464466
v -30.330127 15.000000 -15.500000
v -30.829629 15.000000 -16.705905
v -31.000000 15.000000 -18.000000
v -30.829629 15.000000 -19.294095
v -30.330127 15.000000 -20.500000
v -29.535534 15.000000 -21.535534
v -28.500000 15.000000 -22.330127
v -27.294095 15.000000 -22.829629
v -26.000000 15.000000 -23.000000
v -24.705905 15.000000 -22.829629
v -23.500000 15.000000 -22.330127
v -22.464466 15.000000 -21.535534
v -21.669873 15.000000 -20.500000
v -21.170371 15.000000 -19.294095
f 121 122 146
f 121 146 145
f 122 123 147
f 122 147 146
f 123 124 148
f 123 148 147
f 124 125 149
f 124 149 148
f 125 126 150
f 125 150 149
f 126 127 151
f 126 151 150
f 127 128 152
f 127 152 151
f 128 129 153
f 128 153 152
f 129 130 154
f 129 154 153
f 130 131 155
f 130 155 154
f 131 132 156
f 131 156 155
f 132 133 157
f 132 157 156
f 133 134 158
f 133 158 157
f 134 135 159
f 134 159 158
f 135 136 160
f 135 160 159
f 136 137 161
f 136 161 160
f 137 138 162
f 137 162 161
f 138 139 163
f 138 163 162
f 139 140 164
f 139 164 163
f 140 141 165
f 140 165 164
f 141 142 166
f 141 166 165
f 142 143 167
f 142 167 166
f 143 144 168
f 143 168 167
f 144 121 145
f 144 145 168
f 121 123 122
f 145 146 147
f 121 124 123
f 145 147 148
f 121 125 124
f 145 148 149
f 121 126 125
f 145 149 150
f 121 127 126
f 145 150 151
f 121 128 127
f 145 151 152
f 121 129 128
f 145 152 153
f 121 130 129
f 145 153 154
f 121 131 130
f 145 154 155
f 121 132 131
f 145 155 156
f 121 133 132
f 145 156 157
f 121 134 133
f 145 157 158
f 121 135 134
f 145 158 159
f 121 136 135
f 145 159 160
f 121 137 136
f 145 160 161
f 121 138 137
f 145 161 162
f 121 139 138
f 145 162 163
f 121 140 139
f 145 163 164
f 121 141 140
f 145 164 165
f 121 142 141
f 145 165 166
f 121 143 142
f 145 166 167
f 121 144 143
f 145 167 168
o Mounting bolt
v -21.000000 8.000000 18.000000
v -21.170371 8.000000 19.294095
v -21.669873 8.000000 20.500000
v -22.464466 8.000000 21.535534
v -23.500000 8.000000 22.330127
v -24.705905 8.000000 22.829629
v -26.000000 8.000000 23.000000
v -27.294095 8.000000 22.829629
v -28.500000 8.000000 22.330127
v -29.535534 8.000000 21.535534
v -30.330127 8.000000 20.500000
v -30.829629 8.000000 19.294095
v -31.000000 8.000000 18.000000
v -30.829629 8.000000 16.705905
v -30.330127 8.000000 15.500000
v -29.535534 8.000000 14.464466
v -28.500000 8.000000 13.669873
v -27.294095 8.000000 13.170371
v -26.000000 8.000000 13.000000
v -24.705905 8.000000 13.170371
v -23.500000 8.000000 13.669873
v -22.464466 8.000000 14.464466
v -21.669873 8.000000 15.500000
v -21.170371 8.000000 16.705905
v -21.000000 15.000000 18.000000
v -21.170371 15.000000 19.294095
v -21.669873 15.000000 20.500000
v -22.464466 15.000000 21.535534
v -23.500000 15.000000 22.330127
v -24.705905 15.000000 22.829629
v -26.000000 15.000000 23.000000
v -27.294095 15.000000 22.829629
v -28.500000 15.000000 22.330127
v -29.535534 15.000000 21.535534
v -30.330127 15.000000 20.500000
v -30.829629 15.000000 19.294095
v -31.000000 15.000000 18.000000
v -30.829629 15.000000 16.705905
v -30.330127 15.000000 15.500000
v -29.535534 15.000000 14.464466
v -28.500000 15.000000 13.669873
v -27.294095 15.000000 13.170371
v -26.000000 15.000000 13.000000
v -24.705905 15.000000 13.170371
v -23.500000 15.000000 13.669873
v -22.464466 15.000000 14.464466
v -21.669873 15.000000 15.500000
v -21.170371 15.000000 16.705905
f 169 170 194
f 169 194 193
f 170 171 195
f 170 195 194
f 171 172 196
f 171 196 195
f 172 173 197
f 172 197 196
f 173 174 198
f 173 198 197
f 174 175 199
f 174 199 198
f 175 176 200
f 175 200 199
f 176 177 201
f 176 201 200
f 177 178 202
f 177 202 201
f 178 179 203
f 178 203 202
f 179 180 204
f 179 204 203
f 180 181 205
f 180 205 204
f 181 182 206
f 181 206 205
f 182 183 207
f 182 207 206
f 183 184 208
f 183 208 207
f 184 185 209
f 184 209 208
f 185 186 210
f 185 210 209
f 186 187 211
f 186 211 210
f 187 188 212
f 187 212 211
f 188 189 213
f 188 213 212
f 189 190 214
f 189 214 213
f 190 191 215
f 190 215 214
f 191 192 216
f 191 216 215
f 192 169 193
f 192 193 216
f 169 171 170
f 193 194 195
f 169 172 171
f 193 195 196
f 169 173 172
f 193 196 197
f 169 174 173
f 193 197 198
f 169 175 174
f 193 198 199
f 169 176 175
f 193 199 200
f 169 177 176
f 193 200 201
f 169 178 177
f 193 201 202
f 169 179 178
f 193 202 203
f 169 180 179
f 193 203 204
f 169 181 180
f 193 204 205
f 169 182 181
f 193 205 206
f 169 183 182
f 193 206 207
f 169 184 183
f 193 207 208
f 169 185 184
f 193 208 209
f 169 186 185
f 193 209 210
f 169 187 186
f 193 210 211
f 169 188 187
f 193 211 212
f 169 189 188
f 193 212 213
f 169 190 189
f 193 213 214
f 169 191 190
f 193 214 215
f 169 192 191
f 193 215 216
o Bearing shaft
v -6.000000 32.000000 0.000000
v -6.306668 32.000000 2.329371
v -7.205771 32.000000 4.500000
v -8.636039 32.000000 6.363961
v -10.500000 32.000000 7.794229
v -12.670629 32.000000 8.693332
v -15.000000 32.000000 9.000000
v -17.329371 32.000000 8.693332
v -19.500000 32.000000 7.794229
v -21.363961 32.000000 6.363961
v -22.794229 32.000000 4.500000
v -23.693332 32.000000 2.329371
v -24.000000 32.000000 0.000000
v -23.693332 32.000000 -2.329371
v -22.794229 32.000000 -4.500000
v -21.363961 32.000000 -6.363961
v -19.500000 32.000000 -7.794229
v -17.329371 32.000000 -8.693332
v -15.000000 32.000000 -9.000000
v -12.670629 32.000000 -8.693332
v -10.500000 32.000000 -7.794229
v -8.636039 32.000000 -6.363961
v -7.205771 32.000000 -4.500000
v -6.306668 32.000000 -2.329371
v -6.000000 50.000000 0.000000
v -6.306668 50.000000 2.329371
v -7.205771 50.000000 4.500000
v -8.636039 50.000000 6.363961
v -10.500000 50.000000 7.794229
v -12.670629 50.000000 8.693332
v -15.000000 50.000000 9.000000
v -17.329371 50.000000 8.693332
v -19.500000 50.000000 7.794229
v -21.363961 50.000000 6.363961
v -22.794229 50.000000 4.500000
v -23.693332 50.000000 2.329371
v -24.000000 50.000000 0.000000
v -23.693332 50.000000 -2.329371
v -22.794229 50.000000 -4.500000
v -21.363961 50.000000 -6.363961
v -19.500000 50.000000 -7.794229
v -17.329371 50.000000 -8.693332
v -15.000000 50.000000 -9.000000
v -12.670629 50.000000 -8.693332
v -10.500000 50.000000 -7.794229
v -8.636039 50.000000 -6.363961
v -7.205771 50.000000 -4.500000
v -6.306668 50.000000 -2.329371
f 217 218 242
f 217 242 241
f 218 219 243
f 218 243 242
f 219 220 244
f 219 244 243
f 220 221 245
f 220 245 244
f 221 222 246
f 221 246 245
f 222 223 247
f 222 247 246
f 223 224 248
f 223 248 247
f 224 225 249
f 224 249 248
f 225 226 250
f 225 250 249
f 226 227 251
f 226 251 250
f 227 228 252
f 227 252 251
f 228 229 253
f 228 253 252
f 229 230 254
f 229 254 253
f 230 231 255
f 230 255 254
f 231 232 256
f 231 256 255
f 232 233 257
f 232 257 256
f 233 234 258
f 233 258 257
f 234 235 259
f 234 259 258
f 235 236 260
f 235 260 259
f 236 237 261
f 236 261 260
f 237 238 262
f 237 262 261
f 238 239 263
f 238 263 262
f 239 240 264
f 239 264 263
f 240 217 241
f 240 241 264
f 217 219 218
f 241 242 243
f 217 220 219
f 241 243 244
f 217 221 220
f 241 244 245
f 217 222 221
f 241 245 246
f 217 223 222
f 241 246 247
f 217 224 223
f 241 247 248
f 217 225 224
f 241 248 249
f 217 226 225
f 241 249 250
f 217 227 226
f 241 250 251
f 217 228 227
f 241 251 252
f 217 229 228
f 241 252 253
f 217 230 229
f 241 253 254
f 217 231 230
f 241 254 255
f 217 232 231
f 241 255 256
f 217 233 232
f 241 256 257
f 217 234 233
f 241 257 258
f 217 235 234
f 241 258 259
f 217 236 235
f 241 259 260
f 217 237 236
f 241 260 261
f 217 238 237
f 241 261 262
f 217 239 238
f 241 262 263
f 217 240 239
f 241 263 264
